<svg version="1.1" xmlns="http://www.w3.org/2000/svg" width="40" height="40" viewBox="0 0 32 32" fill="#ffffff">
        <path d="M31.333 29.333h-30.667c-0.368 0-0.667-0.3-0.667-0.667v-25.333c0-0.367 0.299-0.667 0.667-0.667h30.667c0.367 0 0.667 0.3 0.667 0.667v25.333c0 0.367-0.3 0.667-0.667 0.667zM1.333 28h29.333v-24h-29.333v24zM30.667 9.333h-29.333c-0.368 0-0.667-0.3-0.667-0.667s0.299-0.667 0.667-0.667h29.333c0.367 0 0.667 0.3 0.667 0.667s-0.3 0.667-0.667 0.667zM22 28.667c-0.367 0-0.667-0.3-0.667-0.667v-18.667c0-0.367 0.3-0.667 0.667-0.667s0.667 0.3 0.667 0.667v18.667c0 0.367-0.3 0.667-0.667 0.667zM28 14.667h-2.667c-0.367 0-0.667-0.3-0.667-0.667s0.3-0.667 0.667-0.667h2.667c0.367 0 0.667 0.3 0.667 0.667s-0.3 0.667-0.667 0.667zM28 17.333h-2.667c-0.367 0-0.667-0.3-0.667-0.667s0.3-0.667 0.667-0.667h2.667c0.367 0 0.667 0.3 0.667 0.667s-0.3 0.667-0.667 0.667zM28 20h-2.667c-0.367 0-0.667-0.3-0.667-0.667s0.3-0.667 0.667-0.667h2.667c0.367 0 0.667 0.3 0.667 0.667s-0.3 0.667-0.667 0.667zM28 22.667h-2.667c-0.367 0-0.667-0.3-0.667-0.667s0.3-0.667 0.667-0.667h2.667c0.367 0 0.667 0.3 0.667 0.667s-0.3 0.667-0.667 0.667zM28 25.333h-2.667c-0.367 0-0.667-0.3-0.667-0.667s0.3-0.667 0.667-0.667h2.667c0.367 0 0.667 0.3 0.667 0.667s-0.3 0.667-0.667 0.667zM4 6c0 0.368-0.299 0.667-0.667 0.667s-0.667-0.299-0.667-0.667c0-0.368 0.299-0.667 0.667-0.667s0.667 0.299 0.667 0.667zM6.667 6c0 0.368-0.299 0.667-0.667 0.667s-0.667-0.299-0.667-0.667c0-0.368 0.299-0.667 0.667-0.667s0.667 0.299 0.667 0.667zM9.333 6c0 0.368-0.299 0.667-0.667 0.667s-0.667-0.299-0.667-0.667c0-0.368 0.299-0.667 0.667-0.667s0.667 0.299 0.667 0.667z"></path>
        </svg>