<svg version="1.1" xmlns="http://www.w3.org/2000/svg" width="40" height="40" viewBox="0 0 32 32" fill="#ffffff">
        <path d="M7.172 8.327c-0.368 0-0.667-0.3-0.667-0.667v-5.333c0-0.367 0.299-0.667 0.667-0.667s0.667 0.3 0.667 0.667v5.333c0 0.368-0.299 0.667-0.667 0.667zM9.172 3.744c-0.175 0-0.351-0.068-0.481-0.201l-1.519-1.585-1.519 1.584c-0.255 0.263-0.679 0.275-0.943 0.020-0.265-0.253-0.273-0.677-0.019-0.943l2-2.084c0.251-0.259 0.711-0.259 0.963 0l2 2.084c0.255 0.265 0.247 0.691-0.020 0.943-0.129 0.123-0.296 0.183-0.463 0.183zM21.743 31.66h-7.533c-3.165 0-5.408-4.885-7.388-9.195-0.749-1.631-1.456-3.169-2.045-4-0.863-1.213-0.812-2.719 0.123-3.656 0.992-0.989 2.751-1.028 3.716-0.063l1.892 1.937v-10.935c0-1.409 1.221-2.599 2.667-2.599 1.471 0 2.667 1.153 2.667 2.573v5.773c0.392-0.219 0.848-0.345 1.333-0.345 1.148 0 2.156 0.751 2.521 1.767 0.424-0.273 0.932-0.433 1.479-0.433 1.148 0 2.156 0.751 2.521 1.767 0.424-0.273 0.932-0.433 1.479-0.433 1.445 0 2.667 1.195 2.667 2.6v7.213c0 5.585-5.612 7.889-5.851 7.981-0.079 0.031-0.164 0.047-0.247 0.047zM6.816 15.348c-0.363 0-0.719 0.145-0.975 0.405-0.545 0.547-0.371 1.391 0.021 1.943 0.661 0.932 1.36 2.453 2.169 4.213 1.632 3.555 3.867 8.417 6.176 8.417h7.399c0.76-0.333 4.901-2.36 4.901-6.696v-7.213c0-0.687-0.612-1.265-1.333-1.265-0.724 0-1.333 0.568-1.333 1.239 0 0.368-0.3 0.667-0.667 0.667-0.368 0-0.667-0.299-0.667-0.667v-1.305c0-0.688-0.612-1.265-1.333-1.265-0.724 0-1.333 0.568-1.333 1.24 0 0.367-0.3 0.667-0.667 0.667-0.368 0-0.667-0.3-0.667-0.667v-1.305c0-0.687-0.612-1.265-1.333-1.265-0.723 0-1.333 0.568-1.333 1.239 0 0.368-0.299 0.667-0.667 0.667s-0.667-0.299-0.667-0.667v-8c0-0.669-0.611-1.239-1.333-1.239s-1.333 0.583-1.333 1.265v12.575c0 0.271-0.164 0.519-0.416 0.617-0.251 0.104-0.539 0.040-0.728-0.148l-3.031-3.107c-0.216-0.224-0.52-0.344-0.851-0.344z"></path>
        </svg>