<svg version="1.1" xmlns="http://www.w3.org/2000/svg" width="40" height="40" viewBox="0 0 32 32" fill="#ffffff">
        <path d="M31.333 29.333h-30.667c-0.368 0-0.667-0.3-0.667-0.667v-25.333c0-0.367 0.299-0.667 0.667-0.667h30.667c0.367 0 0.667 0.3 0.667 0.667v25.333c0 0.367-0.3 0.667-0.667 0.667zM1.333 28h29.333v-24h-29.333v24zM30.667 9.333h-29.333c-0.368 0-0.667-0.3-0.667-0.667s0.299-0.667 0.667-0.667h29.333c0.367 0 0.667 0.3 0.667 0.667s-0.3 0.667-0.667 0.667zM19.333 17.333h-5.333c-0.368 0-0.667-0.3-0.667-0.667v-4c0-0.367 0.299-0.667 0.667-0.667h5.333c0.367 0 0.667 0.3 0.667 0.667v4c0 0.367-0.3 0.667-0.667 0.667zM14.667 16h4v-2.667h-4v2.667zM14 26.667h-5.333c-0.368 0-0.667-0.3-0.667-0.667v-4c0-0.367 0.299-0.667 0.667-0.667h5.333c0.368 0 0.667 0.3 0.667 0.667v4c0 0.367-0.299 0.667-0.667 0.667zM9.333 25.333h4v-2.667h-4v2.667zM24.667 26.667h-5.333c-0.367 0-0.667-0.3-0.667-0.667v-4c0-0.367 0.3-0.667 0.667-0.667h5.333c0.367 0 0.667 0.3 0.667 0.667v4c0 0.367-0.3 0.667-0.667 0.667zM20 25.333h4v-2.667h-4v2.667zM22 22c-0.367 0-0.667-0.3-0.667-0.667v-1.333h-9.333v1.333c0 0.367-0.299 0.667-0.667 0.667s-0.667-0.3-0.667-0.667v-2c0-0.367 0.299-0.667 0.667-0.667h10.667c0.367 0 0.667 0.3 0.667 0.667v2c0 0.367-0.3 0.667-0.667 0.667zM16.667 19.333c-0.368 0-0.667-0.3-0.667-0.667v-1.333c0-0.367 0.299-0.667 0.667-0.667 0.367 0 0.667 0.3 0.667 0.667v1.333c0 0.367-0.3 0.667-0.667 0.667zM4 6c0 0.368-0.299 0.667-0.667 0.667s-0.667-0.299-0.667-0.667c0-0.368 0.299-0.667 0.667-0.667s0.667 0.299 0.667 0.667zM6.667 6c0 0.368-0.299 0.667-0.667 0.667s-0.667-0.299-0.667-0.667c0-0.368 0.299-0.667 0.667-0.667s0.667 0.299 0.667 0.667zM9.333 6c0 0.368-0.299 0.667-0.667 0.667s-0.667-0.299-0.667-0.667c0-0.368 0.299-0.667 0.667-0.667s0.667 0.299 0.667 0.667z"></path>
        </svg>