<svg version="1.1" xmlns="http://www.w3.org/2000/svg" width="32" height="32" viewBox="0 0 32 32">
        <path d="M18.333 31.333c-0.076 0-0.151-0.012-0.224-0.039-0.265-0.095-0.443-0.347-0.443-0.628v-29.333c0-0.281 0.177-0.533 0.443-0.627 0.26-0.096 0.561-0.013 0.74 0.205l12 14.667c0.201 0.247 0.201 0.599 0 0.844l-12 14.667c-0.129 0.159-0.321 0.244-0.516 0.244zM19 3.201v25.599l10.472-12.8-10.472-12.799zM17.667 17.333h-16c-0.368 0-0.667-0.3-0.667-0.667 0-0.368 0.299-0.667 0.667-0.667h16c0.367 0 0.667 0.299 0.667 0.667 0 0.367-0.3 0.667-0.667 0.667z"></path>
        </svg>