<svg width="189" height="62" viewBox="0 0 189 62" fill="none" xmlns="http://www.w3.org/2000/svg">
<path d="M144.193 14.8352V15.9842H145.011V18.2415H146.377V15.9893H147.012V14.8352H144.193Z" fill="#828181"/>
<path d="M147.506 18.2415V14.9165H148.656L149.33 16.2434L150.104 14.9165H151.154V18.2415H149.977V16.9349L149.33 17.9313L148.672 16.9705V18.2415H147.506Z" fill="#828181"/>
<path d="M31.357 37.4183L28.8642 30.2346C28.811 30.2971 28.7664 30.3654 28.7315 30.438C28.5325 31.0023 28.3446 31.5666 28.1401 32.1259C27.6592 33.4426 27.1673 34.7594 26.6864 36.0761C26.5648 36.4015 26.4653 36.7371 26.3492 37.0624C26.3105 37.1794 26.2608 37.2912 26.2055 37.4183C26.0563 37.4183 25.9236 37.4183 25.7909 37.4183C25.0945 37.4183 24.398 37.4183 23.7071 37.4183C23.0162 37.4183 22.3971 37.3776 21.7394 37.3522C21.3912 37.3522 21.2696 37.2556 21.1866 36.9303C21.0208 36.3863 20.8716 35.8372 20.7279 35.2881C20.3354 33.7629 19.9209 32.2021 19.5616 30.6515C19.1047 28.6653 18.6698 26.6741 18.2571 24.6778C17.9808 23.3152 17.7597 21.9375 17.5165 20.5648C17.4612 20.2292 17.4059 19.8886 17.3617 19.548C17.3534 19.4244 17.3534 19.3004 17.3617 19.1769C17.5706 19.0877 17.8008 19.0491 18.0305 19.065C19.3681 19.065 20.7058 19.065 22.0434 19.065C22.5132 19.065 22.9775 19.0904 23.4473 19.126C23.8287 19.1565 23.9172 19.2429 24.0001 19.6039C24.1106 20.1581 24.2267 20.7173 24.3207 21.2715C24.5086 22.3289 24.6855 23.3864 24.8734 24.4439C24.9674 25.054 25.0503 25.6641 25.1387 26.2691C25.1387 26.4419 25.1995 26.6097 25.2327 26.8181C25.3314 26.7234 25.3952 26.6024 25.4151 26.4724C25.5643 25.964 25.7025 25.3997 25.8573 24.8608C26.1281 23.9253 26.41 22.9848 26.6753 22.0493C26.8301 21.5409 27.007 21.0325 27.1728 20.5241C27.1728 20.4529 27.2281 20.3818 27.2502 20.3106C27.2664 20.2253 27.3169 20.1487 27.3916 20.0959C27.4663 20.0432 27.5599 20.0182 27.6537 20.0259C28.5104 20.0259 29.3672 20.0259 30.2184 20.0259C30.2744 20.0298 30.3299 20.0383 30.3842 20.0513C30.5294 20.3132 30.6354 20.592 30.6993 20.88C31.3128 22.6899 31.8379 24.5202 32.3575 26.3606C32.3575 26.4521 32.4238 26.5436 32.4846 26.7063C32.5344 26.5385 32.5786 26.4368 32.5952 26.3352C32.6836 25.7302 32.7665 25.1201 32.8549 24.51C32.9765 23.7169 33.0926 22.9238 33.2197 22.1358C33.3469 21.3477 33.4574 20.6105 33.579 19.8734C33.6067 19.7005 33.6454 19.5327 33.6619 19.365C33.6648 19.2966 33.6963 19.232 33.7499 19.1846C33.8035 19.1372 33.875 19.1107 33.9494 19.1108C34.1207 19.1108 34.2976 19.0701 34.4689 19.0701C36.0313 19.0701 37.5974 19.0701 39.1672 19.0701C39.3929 19.0742 39.6181 19.0912 39.8415 19.1209C39.8858 19.1206 39.9296 19.1296 39.9696 19.1471C40.0096 19.1646 40.0447 19.1902 40.0724 19.222C40.1 19.2539 40.1195 19.291 40.1293 19.3307C40.1391 19.3705 40.139 19.4117 40.129 19.4514C40.129 19.6192 40.0848 19.792 40.0571 19.9598L39.4325 23.3864C39.1064 25.3031 38.7029 27.2147 38.2773 29.1161C38.0451 30.1634 37.7964 31.2107 37.5422 32.253C37.2879 33.2952 36.9894 34.3628 36.7352 35.4152C36.5914 35.9643 36.4312 36.5134 36.2764 37.0574C36.1935 37.337 36.1714 37.3471 35.8674 37.3624C34.491 37.4336 33.1037 37.4437 31.7329 37.4387L31.357 37.4183Z" fill="white"/>
<path d="M88.1188 37.3217C87.9972 37.3217 87.9087 37.3573 87.8203 37.3624C86.5877 37.4234 85.3606 37.4488 84.128 37.4234C83.4205 37.4234 82.713 37.3878 82.0055 37.3573C81.6573 37.3573 81.5191 37.2251 81.5136 36.9048C81.5136 36.4625 81.5136 36.0202 81.5136 35.5728C81.5136 34.2204 81.5136 32.8681 81.5136 31.5056C81.5136 31.3785 81.5136 31.2564 81.5136 31.1344C81.5108 31.0845 81.4876 31.0374 81.4487 31.0025C81.4097 30.9676 81.3579 30.9475 81.3035 30.9463H81.1045H79.7006C79.6383 30.9356 79.5743 30.9378 79.5131 30.9528C79.4519 30.9677 79.3951 30.995 79.3468 31.0327V31.5208C79.3468 32.1004 79.3468 32.68 79.3468 33.2545C79.2694 34.5001 79.3081 35.7406 79.286 36.9811C79.2889 37.0183 79.2889 37.0557 79.286 37.0929C79.286 37.3217 79.2252 37.3674 78.971 37.3827C77.6499 37.4539 76.3234 37.464 74.9968 37.4437C74.3832 37.4437 73.7697 37.3979 73.1562 37.3827C72.9682 37.3827 72.7969 37.3471 72.714 37.1844C72.6669 37.0709 72.6444 36.95 72.6476 36.8285C72.6476 36.1727 72.6476 35.5219 72.6476 34.8712C72.5095 30.6362 72.5813 26.4063 72.5979 22.1611C72.5979 21.2511 72.6421 20.341 72.6642 19.431C72.6642 19.3496 72.6919 19.2632 72.7029 19.1819C72.8774 19.1055 73.068 19.0656 73.2612 19.0649C74.6264 19.0649 75.9862 19.0649 77.3514 19.0649C77.8323 19.0649 78.3132 19.0954 78.7941 19.1259C79.0926 19.1259 79.1921 19.2378 79.2197 19.5123C79.2197 19.6089 79.2197 19.7106 79.2197 19.8072C79.2197 20.3614 79.2197 20.9155 79.2197 21.4697C79.2197 22.7712 79.2584 24.0778 79.2805 25.3793C79.2805 25.4912 79.2805 25.5979 79.2805 25.725C79.3709 25.7514 79.4633 25.7718 79.5569 25.786H81.0824C81.3588 25.786 81.4141 25.7301 81.4306 25.4861C81.4306 25.3793 81.4306 25.2675 81.4306 25.1556C81.4306 23.322 81.4306 21.4883 81.4306 19.6547C81.4306 19.4971 81.4306 19.3395 81.4306 19.1819C81.6376 19.1046 81.8595 19.0665 82.0829 19.07H87.0575C87.2705 19.0761 87.4828 19.0948 87.6932 19.1259C87.9253 19.1514 88.0138 19.248 88.0414 19.4615C88.0414 19.5123 88.0414 19.5632 88.0414 19.6089C88.069 21.7493 88.0856 23.8897 88.1409 26.0301C88.174 27.2146 88.2238 28.3941 88.1796 29.5889C88.1077 31.4242 88.1464 33.2545 88.1077 35.0898C88.1077 35.7507 88.0635 36.4167 88.0414 37.0777C88.1464 37.1132 88.1354 37.2098 88.1188 37.3217Z" fill="white"/>
<path d="M111.555 19.0752C111.759 19.0752 111.92 19.0752 112.074 19.0752H114.926C115.236 19.0752 115.54 19.0752 115.85 19.0752C116.159 19.0752 116.546 19.0752 116.894 19.0752C118.055 19.0752 119.221 19.0752 120.382 19.1057C120.52 19.1057 120.653 19.1057 120.786 19.1057C120.894 19.1102 120.998 19.149 121.08 19.2157C121.161 19.2823 121.216 19.3728 121.233 19.4717C121.289 19.7005 121.333 19.9293 121.382 20.1581C121.996 22.8933 122.615 25.6285 123.218 28.3637C123.77 30.9057 124.323 33.4121 124.76 35.944C124.843 36.4066 124.914 36.8693 124.997 37.3523C124.905 37.3789 124.811 37.3993 124.715 37.4133L122.107 37.4794C121.731 37.4794 121.355 37.4794 121.001 37.4794C120.332 37.4794 119.663 37.4438 118.995 37.4133C118.646 37.4133 118.514 37.3065 118.442 36.9913C118.326 36.4829 118.226 35.9745 118.127 35.4661L117.895 34.3069C117.895 34.2459 117.862 34.19 117.839 34.1087C117.347 34.0731 116.852 34.0629 116.358 34.0781C115.877 34.0781 115.396 34.0781 114.932 34.0781C114.831 34.2056 114.773 34.3578 114.766 34.5154C114.6 35.3847 114.435 36.2592 114.263 37.1286C114.239 37.2188 114.208 37.3072 114.169 37.3929C113.86 37.3929 113.556 37.459 113.252 37.4641C111.955 37.4641 110.665 37.4641 109.383 37.4641C108.996 37.4641 108.609 37.4336 108.222 37.4133C107.835 37.3929 107.763 37.2862 107.813 36.9659C107.874 36.5388 107.956 36.1168 108.039 35.6949C108.354 34.068 108.653 32.4462 108.99 30.8244C109.449 28.6637 109.93 26.508 110.405 24.3473C110.774 22.7204 111.142 21.0936 111.511 19.4667C111.477 19.3192 111.516 19.2175 111.555 19.0752ZM117.165 29.9652C116.856 27.9316 116.557 25.8522 116.198 23.7881C116.101 24.1885 116.035 24.5944 115.999 25.0032C115.949 25.4201 115.899 25.8369 115.855 26.2488C115.811 26.6606 115.75 27.0825 115.7 27.4994C115.651 27.9163 115.59 28.3281 115.551 28.745C115.481 29.1506 115.439 29.5598 115.424 29.9703C116 30.0627 116.59 30.061 117.165 29.9652V29.9652Z" fill="url(#paint0_linear_160_1145)"/>
<path d="M142.259 19.416C142.044 20.9412 141.828 22.4664 141.613 23.9459C141.59 24.0359 141.561 24.1242 141.524 24.2102C141.358 24.2102 141.198 24.2102 141.043 24.2102H135.942C135.792 24.2102 135.649 24.2102 135.499 24.2102C135.317 24.2221 135.142 24.2782 134.992 24.3729C134.841 24.4676 134.721 24.5975 134.643 24.7491C134.549 24.9242 134.476 25.1084 134.427 25.2982C134.282 25.8995 134.202 26.5126 134.189 27.1285C134.189 27.8199 134.189 28.5062 134.189 29.1977C134.188 29.7758 134.268 30.3516 134.427 30.911C134.492 31.1374 134.577 31.3584 134.681 31.5719C134.759 31.7438 134.889 31.8914 135.056 31.9969C135.222 32.1024 135.419 32.1614 135.621 32.1667C135.877 32.2021 136.138 32.2021 136.395 32.1667C136.416 32.0814 136.431 31.9947 136.439 31.9074C136.439 30.9364 136.389 29.9653 136.367 28.9943C136.367 28.552 136.328 28.1097 136.367 27.6572C136.568 27.5793 136.785 27.5445 137.003 27.5555C137.655 27.5555 138.313 27.5555 138.971 27.5555C139.628 27.5555 140.308 27.5555 140.977 27.5555C141.259 27.5555 141.53 27.5555 141.817 27.6064C141.868 27.6057 141.918 27.6142 141.966 27.6315C142.013 27.6488 142.056 27.6744 142.092 27.707C142.129 27.7396 142.158 27.7784 142.178 27.8213C142.198 27.8643 142.209 27.9104 142.21 27.9572C142.21 28.0029 142.21 28.0538 142.21 28.0995C142.298 29.8332 142.326 31.5719 142.309 33.3056C142.309 33.8699 142.309 34.4393 142.309 35.0036C142.309 35.5679 142.254 36.1119 142.226 36.661C142.226 36.7118 142.226 36.7576 142.187 36.8339C142.06 36.8339 141.939 36.9 141.812 36.9203C141.043 37.0372 140.281 37.1592 139.512 37.266C139.208 37.3067 138.904 37.3321 138.595 37.3524C137.501 37.4423 136.403 37.466 135.306 37.4236C134.374 37.395 133.448 37.2774 132.542 37.0728C131.307 36.8125 130.186 36.2154 129.325 35.3595C128.717 34.7159 128.252 33.9677 127.96 33.1581C127.682 32.4015 127.497 31.6189 127.407 30.8245C127.257 29.7373 127.204 28.6406 127.247 27.5454C127.269 26.2032 127.501 24.8709 127.938 23.59C128.156 22.9679 128.459 22.3734 128.839 21.8207C129.547 20.8397 130.552 20.0709 131.73 19.6092C132.594 19.2721 133.509 19.0562 134.444 18.9686C135.641 18.8543 136.847 18.839 138.047 18.9228C139.114 18.9788 140.175 19.1262 141.237 19.2431C141.502 19.2431 141.79 19.3092 142.033 19.3499C142.109 19.3687 142.185 19.3908 142.259 19.416V19.416Z" fill="url(#paint1_linear_160_1145)"/>
<path d="M68.12 19.5989C67.8823 21.2665 67.6612 22.9035 67.3904 24.566C67.3038 24.5577 67.2186 24.5407 67.1361 24.5152C66.0356 24.097 64.8908 23.7852 63.7202 23.5848C62.8594 23.418 61.9791 23.3514 61.1002 23.3865C60.8217 23.4044 60.5478 23.4609 60.2877 23.5543C60.1392 23.5978 60.0093 23.6829 59.9161 23.7978C59.8229 23.9127 59.7712 24.0516 59.7681 24.1949C59.7637 24.2811 59.7831 24.3669 59.8247 24.4443C59.8663 24.5217 59.9286 24.5881 60.0058 24.6372C60.2653 24.8107 60.5524 24.9462 60.857 25.0388L62.8856 25.6235C64.0502 25.9239 65.1656 26.3667 66.202 26.9402C67.1485 27.4647 67.9149 28.2242 68.413 29.1314C68.7246 29.7226 68.9121 30.3625 68.9657 31.0176C69.0403 31.9163 68.9411 32.8199 68.6727 33.6867C68.4342 34.5111 67.9498 35.2578 67.2743 35.8424C66.6708 36.3525 65.9514 36.7328 65.1684 36.9558C64.2707 37.2195 63.3437 37.3901 62.4047 37.4642C61.4263 37.5303 60.4535 37.5201 59.4752 37.5048C58.6074 37.5048 57.7396 37.4337 56.8718 37.3879C56.3522 37.3608 55.8326 37.3303 55.3131 37.2964C54.9648 37.2964 54.6221 37.2456 54.2739 37.21C54.1512 37.188 54.0309 37.1557 53.9146 37.1134C53.9976 36.5033 54.0749 35.9085 54.1634 35.3136C54.2518 34.7188 54.3513 34.124 54.4397 33.524L54.6995 31.7751C54.8432 31.6684 54.9427 31.7345 55.0422 31.7751L56.8994 32.248C57.8305 32.476 58.7809 32.6308 59.7405 32.7106C60.1397 32.7386 60.5407 32.7386 60.9399 32.7106C61.2791 32.696 61.6051 32.5859 61.8741 32.3954C62.0364 32.2857 62.1642 32.1383 62.2444 31.9683C62.3262 31.8322 62.3489 31.6725 62.3079 31.5216C62.2668 31.3707 62.1652 31.2396 62.0233 31.1549C61.8016 30.9935 61.5483 30.8727 61.2771 30.799L59.3978 30.2906C58.6039 30.0999 57.8348 29.8305 57.1039 29.4873C56.1834 29.0482 55.4011 28.3987 54.8322 27.6012C54.4155 26.967 54.1446 26.2611 54.0362 25.5269C53.8462 24.4668 53.8781 23.3831 54.1302 22.3341C54.2348 21.9659 54.3697 21.6056 54.5337 21.2563C54.836 20.6182 55.3665 20.0943 56.0372 19.7718C56.789 19.3914 57.6159 19.1529 58.4692 19.0702C59.9378 18.928 61.4157 18.8855 62.8911 18.9431C63.3554 18.9431 63.8252 19.0041 64.2895 19.0498C64.7538 19.0956 65.395 19.1566 65.9477 19.2278C66.5005 19.2989 67.1582 19.4159 67.7662 19.5176C67.8855 19.5395 68.0036 19.5666 68.12 19.5989V19.5989Z" fill="white"/>
<path d="M1.14515 31.704L1.81949 31.8718C2.95232 32.1852 4.10635 32.4298 5.2741 32.6039C5.90781 32.6996 6.55031 32.7371 7.1921 32.7157C7.43345 32.7183 7.67271 32.6744 7.89451 32.5868C8.11632 32.4993 8.31574 32.37 8.47998 32.2073C8.56899 32.1319 8.63689 32.0378 8.67791 31.9331C8.71892 31.8283 8.73184 31.7161 8.71556 31.6058C8.69928 31.4954 8.65429 31.3904 8.5844 31.2995C8.51452 31.2086 8.42181 31.1346 8.31416 31.0837C8.09143 30.9711 7.86059 30.8725 7.62324 30.7889C6.92679 30.5804 6.21928 30.3974 5.51178 30.1991C4.72557 29.994 3.96856 29.7039 3.25661 29.3348C2.91375 29.1224 2.58348 28.8933 2.2672 28.6485L2.21193 28.5976C1.00696 27.6927 0.570298 26.4674 0.371313 25.1253C0.300502 24.6623 0.276448 24.1942 0.299457 23.7272C0.330915 22.9494 0.500834 22.1817 0.802448 21.4546C1.13639 20.6804 1.76505 20.0443 2.57121 19.665C3.25085 19.3426 3.98897 19.1376 4.749 19.06C6.31623 18.8788 7.8986 18.8346 9.47491 18.9278C10.4864 18.9685 11.4924 19.121 12.4984 19.238C13.0511 19.299 13.5541 19.4006 14.0792 19.4871L14.2782 19.5176C14.4551 19.5633 14.4993 19.6193 14.4938 19.7819C14.4859 19.8673 14.473 19.9521 14.4551 20.0361C14.339 20.8445 14.2174 21.6935 14.1179 22.5222C14.035 23.0815 13.9521 23.6407 13.8636 24.2C13.8384 24.3254 13.8052 24.4493 13.7642 24.5711C13.6386 24.5399 13.515 24.5026 13.3938 24.4593C12.1773 24.008 10.9089 23.6857 9.61309 23.4984C8.89185 23.3887 8.1598 23.3512 7.42978 23.3865C7.19116 23.4048 6.95662 23.4544 6.73333 23.534C6.58264 23.5892 6.4482 23.6763 6.34088 23.7882C6.27183 23.8405 6.21762 23.9075 6.18293 23.9834C6.14823 24.0592 6.13408 24.1417 6.14169 24.2237C6.14931 24.3057 6.17845 24.3848 6.22663 24.4542C6.2748 24.5235 6.34056 24.5811 6.41827 24.6219C6.62032 24.763 6.8438 24.8761 7.08155 24.9575C7.52927 25.1151 7.99357 25.2371 8.45234 25.3795C9.33672 25.654 10.2266 25.9235 11.1055 26.2234C11.9608 26.5149 12.7513 26.9473 13.438 27.4995C13.9809 27.9227 14.427 28.4408 14.7505 29.0238C15.0741 29.6068 15.2686 30.243 15.3229 30.8956C15.3751 31.5749 15.3398 32.2575 15.2179 32.9292C15.1095 33.7148 14.7966 34.4648 14.3058 35.1154C13.8467 35.7104 13.2405 36.1965 12.5371 36.5338C11.8181 36.8843 11.0471 37.1361 10.2487 37.2812C9.42118 37.4243 8.58136 37.4992 7.73931 37.5049C7.04286 37.5049 6.34641 37.5049 5.64996 37.5049C4.82638 37.5049 3.99175 37.4286 3.16817 37.3828L1.64814 37.2964C1.29991 37.2964 0.957215 37.2456 0.60899 37.2151C0.343676 37.1846 0.299457 37.1134 0.299457 36.8897C0.354731 36.4728 0.421059 36.061 0.48186 35.6441L0.852195 33.0462C0.907469 32.6801 0.957215 32.3141 1.01802 31.948C1.04955 31.8623 1.09224 31.7803 1.14515 31.704V31.704Z" fill="white"/>
<path d="M91.5507 19.1566C91.6967 19.0665 91.875 19.0318 92.0481 19.06L96.3042 19.0295C97.1057 19.0295 97.9072 18.999 98.7142 18.999C99.2669 18.999 99.8196 19.0244 100.372 19.0295H105.513C105.634 19.0295 105.756 19.0295 105.872 19.0295C106.226 19.0295 106.353 19.1668 106.37 19.482C106.37 19.5939 106.37 19.7057 106.37 19.8176C106.37 20.5293 106.414 21.2411 106.414 21.9579C106.414 22.6748 106.381 23.356 106.364 24.0576C106.356 24.1145 106.343 24.1706 106.325 24.2254C106.22 24.2254 106.121 24.261 106.016 24.2661L102.849 24.322C102.696 24.3021 102.54 24.3251 102.401 24.3881C102.348 24.5739 102.337 24.7676 102.368 24.9575C102.368 26.8742 102.406 28.7959 102.401 30.7126C102.401 32.3243 102.357 33.9359 102.329 35.5475C102.329 36.0559 102.29 36.5643 102.268 37.0727C102.262 37.1495 102.25 37.2259 102.235 37.3015C101.949 37.3717 101.652 37.4025 101.356 37.393C99.9265 37.393 98.4949 37.393 97.0615 37.393C96.7298 37.393 96.3982 37.393 96.061 37.3473C95.7238 37.3015 95.6188 37.2354 95.6022 36.9151C95.6022 36.8185 95.6022 36.7169 95.6022 36.6203L95.5028 30.3822C95.5028 29.2993 95.4696 28.2164 95.4696 27.1335C95.4696 26.3353 95.4972 25.5371 95.5138 24.7389C95.5413 24.602 95.518 24.4605 95.4475 24.3373C95.3174 24.2782 95.1703 24.2586 95.0274 24.2813C94.4747 24.2813 93.9219 24.2813 93.3692 24.2559C92.8994 24.2559 92.4295 24.2254 91.9652 24.2051C91.6668 24.2051 91.5617 24.0881 91.5396 23.8187C91.5396 23.7577 91.5396 23.6967 91.5396 23.6357C91.5396 22.2579 91.5396 20.875 91.5396 19.4973C91.5375 19.3836 91.5412 19.27 91.5507 19.1566V19.1566Z" fill="url(#paint2_linear_160_1145)"/>
<path d="M43.2302 19.1717C43.4469 19.0949 43.678 19.0586 43.9101 19.0649H48.8515C49.0616 19.0649 49.2772 19.1005 49.4872 19.1158C49.5689 19.1189 49.6466 19.1488 49.7064 19.2001C49.7663 19.2514 49.8042 19.3207 49.8133 19.3954C49.8188 19.4682 49.8188 19.5412 49.8133 19.614C49.8133 19.736 49.8133 19.8631 49.8133 19.9851C49.9073 22.6542 49.9017 25.3234 49.9073 27.9925C49.9073 30.2244 49.9073 32.4512 49.8741 34.678C49.8741 35.4761 49.8354 36.2794 49.8078 37.0776C49.8018 37.1547 49.7888 37.2312 49.7691 37.3064C49.6805 37.3302 49.5899 37.3473 49.4983 37.3572C48.3928 37.3572 47.2541 37.4589 46.1265 37.4233L43.6834 37.3522C43.3021 37.3522 43.1749 37.2251 43.1694 36.8793C43.1694 36.1015 43.1694 35.3541 43.1694 34.5509C43.0257 30.443 43.1031 26.33 43.1196 22.2221C43.1196 21.2866 43.1639 20.3512 43.186 19.4157C43.197 19.3191 43.2191 19.2581 43.2302 19.1717Z" fill="white"/>
<path d="M133.597 44.0785H0.298828V42.5381H135.272L133.597 44.0785Z" fill="white"/>
<path d="M134.494 41.0942L135.898 41.8263L135.528 40.8044L134.494 41.0942Z" fill="white"/>
<path d="M137.449 41.6381L138.135 41.9787L138.013 41.3127L137.449 41.6381Z" fill="white"/>
<path d="M137.131 42.5381V42.9346L137.54 42.7364L137.131 42.5381Z" fill="white"/>
<path d="M136.443 40.1638V40.4546L136.863 40.3067L136.443 40.1638Z" fill="white"/>
<path d="M137.793 39.3198V39.7876H137.24L137.793 39.3198Z" fill="white"/>
<path d="M139.362 38.125L139.152 39.0757L140.578 38.5978L139.362 38.125Z" fill="white"/>
<path d="M136.36 38.6843L136.172 39.025H136.653L136.36 38.6843Z" fill="white"/>
<path d="M139.082 40.0315L139.419 40.5602L139.988 40.0315H139.082Z" fill="white"/>
<path d="M158.138 42.5381H188.256V44.0785H156.463L158.138 42.5381Z" fill="white"/>
<path d="M156.867 38.781V39.3504L157.309 39.1572L156.867 38.781Z" fill="white"/>
<path d="M155.895 41.1652L156.724 40.2603L157.962 41.1652H155.895Z" fill="white"/>
<path d="M154.943 40.4028V40.8248L155.369 40.713L154.943 40.4028Z" fill="white"/>
<path d="M154.219 41.5569L153.871 41.8975H154.678L154.219 41.5569Z" fill="white"/>
<path d="M156.658 41.8974L156.249 42.2533L156.006 41.8008L156.658 41.8974Z" fill="white"/>
<path d="M155.994 26.3556C158.038 20.5184 161.664 15.2556 166.529 11.0628C174.538 4.2655 183.449 1.91159 184.427 1.75907L186.373 0L184.714 1.98277C184.714 1.98277 183.493 11.7644 177.628 18.6482C171.764 25.532 166.076 28.6281 161.831 31.0126L155.994 26.3556Z" fill="#F5F9FA"/>
<path d="M173.306 23.1478C173.057 23.3715 172.814 23.5901 172.565 23.8036C168.622 21.5914 165.098 18.8007 162.135 15.5421L162.804 14.7439C165.789 18.0477 169.335 20.8856 173.306 23.1478V23.1478Z" fill="#44647E"/>
<path d="M182.758 9.55313C182.659 9.8175 182.559 10.087 182.449 10.3564C179.93 8.90984 177.668 7.11439 175.744 5.03343L176.584 4.62671C178.351 6.55453 180.434 8.21671 182.758 9.55313V9.55313Z" fill="#44647E"/>
<path d="M186.378 0L184.72 1.98277C184.327 4.55788 183.668 7.0927 182.753 9.55288C180.43 8.21603 178.349 6.55387 176.584 4.62646C179.069 3.39551 181.701 2.43331 184.427 1.75907L186.378 0Z" fill="#8A9FBB"/>
<path d="M174.777 15.242C176.685 15.242 178.232 13.8194 178.232 12.0645C178.232 10.3096 176.685 8.88696 174.777 8.88696C172.869 8.88696 171.322 10.3096 171.322 12.0645C171.322 13.8194 172.869 15.242 174.777 15.242Z" fill="#7E95B4"/>
<path d="M174.777 14.3422C176.145 14.3422 177.253 13.3224 177.253 12.0645C177.253 10.8066 176.145 9.78687 174.777 9.78687C173.409 9.78687 172.301 10.8066 172.301 12.0645C172.301 13.3224 173.409 14.3422 174.777 14.3422Z" fill="#D3E9EE"/>
<path d="M159.625 18.9635C158.617 20.5291 157.73 22.1583 156.972 23.8391L156.861 24.0933C155.148 23.4188 153.256 23.2235 151.423 23.5318C149.59 23.8401 147.896 24.6384 146.553 25.8269L146.52 25.8524C150.748 16.7367 159.625 18.9635 159.625 18.9635Z" fill="#8A9FBB"/>
<path d="M163.385 39.4013C164.477 38.029 165.108 36.3929 165.202 34.6945C165.295 32.9962 164.846 31.3098 163.91 29.8433C165.68 28.8394 167.392 27.7516 169.039 26.5845C169.354 27.342 172.135 34.5715 163.385 39.4013Z" fill="#7688A0"/>
<path opacity="0.07" d="M186.378 0L184.72 1.98277C184.72 1.98277 183.493 11.7644 177.628 18.6482C171.764 25.532 166.076 28.6281 161.831 31.0126L157.232 27.3368C157.232 27.3368 180.381 25.0388 180.613 2.93348C181.851 2.45608 183.126 2.06519 184.427 1.76416L186.378 0Z" fill="#3D3D3D"/>
<path d="M162.987 15.9129C163.106 15.9129 163.203 15.8241 163.203 15.7146C163.203 15.6051 163.106 15.5164 162.987 15.5164C162.868 15.5164 162.771 15.6051 162.771 15.7146C162.771 15.8241 162.868 15.9129 162.987 15.9129Z" fill="white"/>
<path d="M175.948 9.75123C176.051 9.75123 176.136 9.67384 176.136 9.57837C176.136 9.48291 176.051 9.40552 175.948 9.40552C175.844 9.40552 175.76 9.48291 175.76 9.57837C175.76 9.67384 175.844 9.75123 175.948 9.75123Z" fill="white"/>
<path d="M176.727 10.2088C176.831 10.2088 176.915 10.1314 176.915 10.0359C176.915 9.94043 176.831 9.86304 176.727 9.86304C176.623 9.86304 176.539 9.94043 176.539 10.0359C176.539 10.1314 176.623 10.2088 176.727 10.2088Z" fill="white"/>
<path d="M177.315 10.8596C177.419 10.8596 177.503 10.7822 177.503 10.6868C177.503 10.5913 177.419 10.5139 177.315 10.5139C177.211 10.5139 177.127 10.5913 177.127 10.6868C177.127 10.7822 177.211 10.8596 177.315 10.8596Z" fill="white"/>
<path d="M177.651 11.6475C177.755 11.6475 177.839 11.5701 177.839 11.4746C177.839 11.3791 177.755 11.3018 177.651 11.3018C177.547 11.3018 177.463 11.3791 177.463 11.4746C177.463 11.5701 177.547 11.6475 177.651 11.6475Z" fill="white"/>
<path d="M177.706 12.4915C177.809 12.4915 177.893 12.4141 177.893 12.3186C177.893 12.2231 177.809 12.1458 177.706 12.1458C177.602 12.1458 177.518 12.2231 177.518 12.3186C177.518 12.4141 177.602 12.4915 177.706 12.4915Z" fill="white"/>
<path d="M177.479 13.3101C177.583 13.3101 177.667 13.2327 177.667 13.1372C177.667 13.0417 177.583 12.9644 177.479 12.9644C177.375 12.9644 177.291 13.0417 177.291 13.1372C177.291 13.2327 177.375 13.3101 177.479 13.3101Z" fill="white"/>
<path d="M176.987 14.0269C177.091 14.0269 177.175 13.9495 177.175 13.854C177.175 13.7585 177.091 13.6812 176.987 13.6812C176.883 13.6812 176.799 13.7585 176.799 13.854C176.799 13.9495 176.883 14.0269 176.987 14.0269Z" fill="white"/>
<path d="M176.276 14.5657C176.38 14.5657 176.464 14.4883 176.464 14.3928C176.464 14.2974 176.38 14.22 176.276 14.22C176.172 14.22 176.088 14.2974 176.088 14.3928C176.088 14.4883 176.172 14.5657 176.276 14.5657Z" fill="white"/>
<path d="M175.422 14.8757C175.526 14.8757 175.61 14.7984 175.61 14.7029C175.61 14.6074 175.526 14.53 175.422 14.53C175.319 14.53 175.234 14.6074 175.234 14.7029C175.234 14.7984 175.319 14.8757 175.422 14.8757Z" fill="white"/>
<path d="M174.506 14.9319C174.61 14.9319 174.694 14.8545 174.694 14.759C174.694 14.6636 174.61 14.5862 174.506 14.5862C174.403 14.5862 174.318 14.6636 174.318 14.759C174.318 14.8545 174.403 14.9319 174.506 14.9319Z" fill="white"/>
<path d="M173.616 14.7234C173.719 14.7234 173.804 14.646 173.804 14.5505C173.804 14.4551 173.719 14.3777 173.616 14.3777C173.512 14.3777 173.428 14.4551 173.428 14.5505C173.428 14.646 173.512 14.7234 173.616 14.7234Z" fill="white"/>
<path d="M172.836 14.2708C172.94 14.2708 173.024 14.1934 173.024 14.0979C173.024 14.0024 172.94 13.925 172.836 13.925C172.733 13.925 172.648 14.0024 172.648 14.0979C172.648 14.1934 172.733 14.2708 172.836 14.2708Z" fill="white"/>
<path d="M172.245 13.6201C172.348 13.6201 172.433 13.5427 172.433 13.4473C172.433 13.3518 172.348 13.2744 172.245 13.2744C172.141 13.2744 172.057 13.3518 172.057 13.4473C172.057 13.5427 172.141 13.6201 172.245 13.6201Z" fill="white"/>
<path d="M171.903 12.8372C172.007 12.8372 172.091 12.7598 172.091 12.6643C172.091 12.5688 172.007 12.4915 171.903 12.4915C171.799 12.4915 171.715 12.5688 171.715 12.6643C171.715 12.7598 171.799 12.8372 171.903 12.8372Z" fill="white"/>
<path d="M171.84 11.9934C171.944 11.9934 172.028 11.916 172.028 11.8206C172.028 11.7251 171.944 11.6477 171.84 11.6477C171.736 11.6477 171.652 11.7251 171.652 11.8206C171.652 11.916 171.736 11.9934 171.84 11.9934Z" fill="white"/>
<path d="M172.069 11.1746C172.173 11.1746 172.257 11.0972 172.257 11.0017C172.257 10.9062 172.173 10.8289 172.069 10.8289C171.965 10.8289 171.881 10.9062 171.881 11.0017C171.881 11.0972 171.965 11.1746 172.069 11.1746Z" fill="white"/>
<path d="M172.555 10.4578C172.659 10.4578 172.743 10.3804 172.743 10.2849C172.743 10.1895 172.659 10.1121 172.555 10.1121C172.451 10.1121 172.367 10.1895 172.367 10.2849C172.367 10.3804 172.451 10.4578 172.555 10.4578Z" fill="white"/>
<path d="M173.262 9.91407C173.366 9.91407 173.45 9.83668 173.45 9.74122C173.45 9.64575 173.366 9.56836 173.262 9.56836C173.158 9.56836 173.074 9.64575 173.074 9.74122C173.074 9.83668 173.158 9.91407 173.262 9.91407Z" fill="white"/>
<path d="M174.114 9.59351C174.218 9.59351 174.302 9.51612 174.302 9.42066C174.302 9.32519 174.218 9.2478 174.114 9.2478C174.01 9.2478 173.926 9.32519 173.926 9.42066C173.926 9.51612 174.01 9.59351 174.114 9.59351Z" fill="white"/>
<path d="M175.03 9.53785C175.134 9.53785 175.218 9.46046 175.218 9.365C175.218 9.26953 175.134 9.19214 175.03 9.19214C174.926 9.19214 174.842 9.26953 174.842 9.365C174.842 9.46046 174.926 9.53785 175.03 9.53785Z" fill="white"/>
<path d="M176.568 5.35867C176.662 5.35867 176.739 5.2881 176.739 5.20106C176.739 5.11402 176.662 5.04346 176.568 5.04346C176.473 5.04346 176.396 5.11402 176.396 5.20106C176.396 5.2881 176.473 5.35867 176.568 5.35867Z" fill="white"/>
<path d="M177.374 6.18728C177.469 6.18728 177.546 6.11672 177.546 6.02968C177.546 5.94263 177.469 5.87207 177.374 5.87207C177.28 5.87207 177.203 5.94263 177.203 6.02968C177.203 6.11672 177.28 6.18728 177.374 6.18728Z" fill="white"/>
<path d="M178.076 6.83279C178.17 6.83279 178.247 6.76223 178.247 6.67518C178.247 6.58814 178.17 6.51758 178.076 6.51758C177.981 6.51758 177.904 6.58814 177.904 6.67518C177.904 6.76223 177.981 6.83279 178.076 6.83279Z" fill="white"/>
<path d="M178.845 7.50417C178.94 7.50417 179.017 7.43361 179.017 7.34657C179.017 7.25953 178.94 7.18896 178.845 7.18896C178.751 7.18896 178.674 7.25953 178.674 7.34657C178.674 7.43361 178.751 7.50417 178.845 7.50417Z" fill="white"/>
<path d="M179.673 8.19046C179.768 8.19046 179.845 8.11989 179.845 8.03285C179.845 7.94581 179.768 7.87524 179.673 7.87524C179.579 7.87524 179.502 7.94581 179.502 8.03285C179.502 8.11989 179.579 8.19046 179.673 8.19046Z" fill="white"/>
<path d="M180.447 8.73952C180.541 8.73952 180.618 8.66896 180.618 8.58192C180.618 8.49488 180.541 8.42432 180.447 8.42432C180.352 8.42432 180.275 8.49488 180.275 8.58192C180.275 8.66896 180.352 8.73952 180.447 8.73952Z" fill="white"/>
<path d="M181.265 9.30911C181.36 9.30911 181.436 9.23854 181.436 9.1515C181.436 9.06446 181.36 8.9939 181.265 8.9939C181.17 8.9939 181.094 9.06446 181.094 9.1515C181.094 9.23854 181.17 9.30911 181.265 9.30911Z" fill="white"/>
<path d="M182.15 9.83255C182.244 9.83255 182.321 9.76198 182.321 9.67494C182.321 9.5879 182.244 9.51733 182.15 9.51733C182.055 9.51733 181.979 9.5879 181.979 9.67494C181.979 9.76198 182.055 9.83255 182.15 9.83255Z" fill="white"/>
<path d="M163.872 16.8282C163.991 16.8282 164.087 16.7394 164.087 16.6299C164.087 16.5204 163.991 16.4316 163.872 16.4316C163.753 16.4316 163.656 16.5204 163.656 16.6299C163.656 16.7394 163.753 16.8282 163.872 16.8282Z" fill="white"/>
<path d="M164.815 17.723C164.934 17.723 165.031 17.6342 165.031 17.5247C165.031 17.4152 164.934 17.3264 164.815 17.3264C164.696 17.3264 164.6 17.4152 164.6 17.5247C164.6 17.6342 164.696 17.723 164.815 17.723Z" fill="white"/>
<path d="M165.844 18.679C165.964 18.679 166.06 18.5903 166.06 18.4807C166.06 18.3712 165.964 18.2825 165.844 18.2825C165.725 18.2825 165.629 18.3712 165.629 18.4807C165.629 18.5903 165.725 18.679 165.844 18.679Z" fill="white"/>
<path d="M166.751 19.4464C166.87 19.4464 166.966 19.3576 166.966 19.2481C166.966 19.1386 166.87 19.0498 166.751 19.0498C166.632 19.0498 166.535 19.1386 166.535 19.2481C166.535 19.3576 166.632 19.4464 166.751 19.4464Z" fill="white"/>
<path d="M167.696 20.1988C167.815 20.1988 167.912 20.11 167.912 20.0005C167.912 19.891 167.815 19.8022 167.696 19.8022C167.577 19.8022 167.48 19.891 167.48 20.0005C167.48 20.11 167.577 20.1988 167.696 20.1988Z" fill="white"/>
<path d="M168.753 21.0071C168.872 21.0071 168.968 20.9184 168.968 20.8089C168.968 20.6994 168.872 20.6106 168.753 20.6106C168.634 20.6106 168.537 20.6994 168.537 20.8089C168.537 20.9184 168.634 21.0071 168.753 21.0071Z" fill="white"/>
<path d="M169.813 21.7801C169.932 21.7801 170.029 21.6913 170.029 21.5818C170.029 21.4723 169.932 21.3835 169.813 21.3835C169.694 21.3835 169.598 21.4723 169.598 21.5818C169.598 21.6913 169.694 21.7801 169.813 21.7801Z" fill="white"/>
<path d="M170.88 22.4664C170.999 22.4664 171.095 22.3776 171.095 22.2681C171.095 22.1586 170.999 22.0698 170.88 22.0698C170.761 22.0698 170.664 22.1586 170.664 22.2681C170.664 22.3776 170.761 22.4664 170.88 22.4664Z" fill="white"/>
<path d="M172.036 23.1627C172.155 23.1627 172.251 23.0739 172.251 22.9644C172.251 22.8549 172.155 22.7661 172.036 22.7661C171.917 22.7661 171.82 22.8549 171.82 22.9644C171.82 23.0739 171.917 23.1627 172.036 23.1627Z" fill="white"/>
<path d="M156.791 26.9912C156.791 26.9912 152.043 28.3741 152.037 33.6614C152.037 33.6754 152.043 33.6889 152.053 33.6993C152.063 33.7096 152.077 33.7161 152.093 33.7174L152.319 33.7479C152.329 33.749 152.338 33.752 152.346 33.7566C152.354 33.7612 152.36 33.7673 152.366 33.7745C152.371 33.7817 152.374 33.7899 152.376 33.7984C152.377 33.807 152.377 33.8158 152.374 33.8241L151.75 36.056C151.747 36.0668 151.747 36.0782 151.751 36.0888C151.755 36.0994 151.762 36.1089 151.771 36.1162C151.78 36.1236 151.791 36.1284 151.803 36.1304C151.815 36.1323 151.827 36.1312 151.838 36.1272L153.895 35.3798C153.906 35.3749 153.918 35.3732 153.93 35.3749C153.942 35.3766 153.954 35.3816 153.962 35.3893C153.971 35.397 153.978 35.407 153.98 35.418C153.983 35.4291 153.982 35.4406 153.977 35.451L153.839 35.873C153.834 35.8832 153.832 35.8946 153.834 35.9057C153.836 35.9169 153.841 35.9273 153.85 35.9355C153.858 35.9438 153.869 35.9495 153.881 35.9519C153.893 35.9544 153.905 35.9535 153.917 35.9493C154.823 35.6849 160.682 33.8394 160.826 30.1891L156.791 26.9912Z" fill="#FFDF91"/>
<path d="M157.232 27.3418C157.232 27.3418 153.534 28.7653 153.363 32.2936L153.971 32.3648C153.711 32.9771 153.506 33.608 153.357 34.251C154.067 34.0734 154.749 33.8119 155.386 33.4731C155.386 33.4731 155.386 33.4731 155.386 33.4731L155.353 34.2408C155.568 34.1849 159.935 33.041 160.377 29.8584L157.232 27.3418Z" fill="#FDBC6B"/>
<path d="M157.565 27.6116C157.565 27.6116 154.906 28.7555 154.58 31.3788L155.686 30.8959C155.155 31.5418 154.779 32.2832 154.58 33.0718C155.468 32.7857 156.276 32.3221 156.946 31.7144C156.946 31.7144 156.946 31.7144 156.946 31.7144C156.713 32.1481 156.518 32.5987 156.365 33.0616C156.365 33.0616 156.365 33.0616 156.365 33.0616C156.548 33.0159 159.444 32.1923 159.997 29.5486L157.565 27.6116Z" fill="#F26339"/>
<path d="M155.818 35.2527L133.393 55.9904L123.007 48.4457L115.269 61.0083L107.221 49.1676L100.301 53.1942C100.236 53.2329 100.158 53.2477 100.082 53.2354C100.006 53.2231 99.938 53.1848 99.8917 53.1281V53.1281C99.8674 53.0979 99.85 53.0636 99.8405 53.0271C99.8309 52.9907 99.8295 52.9528 99.8362 52.9158C99.8429 52.8788 99.8576 52.8434 99.8795 52.8118C99.9014 52.7801 99.9299 52.7528 99.9635 52.7315L107.431 47.8966L115.269 59.3865L123.057 46.3765L132.813 52.9552L152.114 33.7173L152.391 33.8342L151.749 36.0559C151.747 36.0668 151.747 36.0781 151.751 36.0887C151.754 36.0993 151.761 36.1088 151.77 36.1161C151.779 36.1235 151.791 36.1284 151.802 36.1303C151.814 36.1322 151.827 36.1311 151.838 36.1271L153.894 35.3798C153.905 35.3748 153.918 35.3731 153.93 35.3748C153.942 35.3765 153.953 35.3815 153.962 35.3892C153.971 35.3969 153.977 35.4069 153.98 35.418C153.983 35.429 153.982 35.4405 153.977 35.4509L153.839 35.8729C153.835 35.8835 153.835 35.8948 153.838 35.9056C153.841 35.9163 153.847 35.9262 153.855 35.934C153.864 35.9418 153.875 35.9474 153.886 35.9501C153.898 35.9527 153.91 35.9524 153.922 35.9492C154.568 35.7519 155.201 35.5193 155.818 35.2527V35.2527Z" fill="#8A9FBB"/>
<path d="M156.985 23.8034V23.8542L156.874 24.1084C155.161 23.4298 153.268 23.2308 151.433 23.5365C149.597 23.8421 147.9 24.6388 146.555 25.8268C151.054 21.4088 156.985 23.8034 156.985 23.8034Z" fill="#6F839B"/>
<path d="M163.408 39.381C164.49 38.0079 165.114 36.3748 165.203 34.681C165.293 32.9873 164.844 31.3062 163.911 29.8433L164.248 29.6501C164.248 29.6501 167.532 34.724 163.408 39.381Z" fill="#627287"/>
<path d="M163.81 21.9731L165.407 23.3102L157.232 30.255L163.81 21.9731Z" fill="#8A9FBB"/>
<path d="M165.408 23.3102L165.176 23.5034L163.611 22.2172L163.81 21.9731L165.408 23.3102Z" fill="#627287"/>
<defs>
<linearGradient id="paint0_linear_160_1145" x1="116.398" y1="19.0752" x2="116.398" y2="37.4794" gradientUnits="userSpaceOnUse">
<stop stop-color="#4EBF90"/>
<stop offset="1" stop-color="#1E865B"/>
</linearGradient>
<linearGradient id="paint1_linear_160_1145" x1="134.773" y1="18.8696" x2="134.773" y2="37.444" gradientUnits="userSpaceOnUse">
<stop stop-color="#4EBF90"/>
<stop offset="1" stop-color="#1E865B"/>
</linearGradient>
<linearGradient id="paint2_linear_160_1145" x1="98.9764" y1="18.999" x2="98.9764" y2="37.3947" gradientUnits="userSpaceOnUse">
<stop stop-color="#4EBF90"/>
<stop offset="1" stop-color="#1E865B"/>
</linearGradient>
</defs>
</svg>
